# xmcd CD database file
#
# Track frame offsets:
#	150
#	16045
#	28347
#	41614
#	58322
#	75720
#	94050
#	108670
#	125520
#	142970
#	158112
#	170512
#	185377
#	197520
#	214132
#	230857
#	246325
#	263272
#	277612
#	291257
#	307182
#
# Disc length: 4259 seconds
#
# Revision: 0
# Processed by: cddbd v1.5.2PL0 Copyright (c) Steve Scherf et al.
# Submitted via: CDex 1.70beta2
#
DISCID=2d10a115
DTITLE=Jones Country - Jones Country JCY-005
DYEAR=0000
DGENRE=Country
TTITLE0=Crystal Gayle/A Long And Lasting Love
TTITLE1=Crystal Gayle/Baby, What About You
TTITLE2=Crystal Gayle/I'll Do It All Over Again
TTITLE3=Crystal Gayle/Nobody Wants To Be Alone
TTITLE4=Crystal Gayle/Our LoveIs On The Faultline
TTITLE5=Crystal Gayle/Take It Easy
TTITLE6=Crystal Gayle/Sound Of Goodbye
TTITLE7=Crystal Gayle/Too Many Lovers
TTITLE8=Crystal Gayle/You Never Miss A Real Good Thing ('Til He Says Goodbye)
TTITLE9=Crystal Gayle and Gary Morris/Another World
TTITLE10=Don Gibson/I Can't Stop Loving You
TTITLE11=Mickey Gilley/Fool For Your Love
TTITLE12=Mickey Gilley/That's All That Matters
TTITLE13=Vern Gosdin/Do You Believe Me Now
TTITLE14=Mark Gray and Tammy Wynette/Sometimes When We Touch
TTITLE15=Lee Greenwood/I Don't Mind The Thorns (If You're The Rose)
TTITLE16=Lee Greenwood/Ring On Her Finger, Time On Her Hands
TTITLE17=Merle Haggard/Branded Man
TTITLE18=Merle Haggard/Cherokee Maiden
TTITLE19=Merle Haggard/Someday When Things Are Good
TTITLE20=Merle Haggard/You Take Me For Granted
EXTD=YEAR: 0000
EXTT0=
EXTT1=
EXTT2=
EXTT3=
EXTT4=
EXTT5=
EXTT6=
EXTT7=
EXTT8=
EXTT9=
EXTT10=
EXTT11=
EXTT12=
EXTT13=
EXTT14=
EXTT15=
EXTT16=
EXTT17=
EXTT18=
EXTT19=
EXTT20=
PLAYORDER=
